<svg xmlns="http://www.w3.org/2000/svg" xmlns:xlink="http://www.w3.org/1999/xlink" width="800" height="800" viewBox="0 0 800 800">
  <defs>
    <clipPath id="clip-path">
      <path id="Path_104066" data-name="Path 104066" d="M484.1,109.66c-17.006-.742-40.619-1.751-70.082,4.692-4.758,1.038-12.56,2.766-21.533,4.694.139,21.411.063,35.68-.014,43.31,11.749-1.184,18.186-2.2,18.186-2.2s-7.593,44.781-24.324,113.693c-1.186,4.89,3.451,9.034,6.884,9.923,24.73,6.4,86.387,6.39,115-.968a7.375,7.375,0,0,0,5.569-7.277c-.251-13.574,2.589-61.951,7.681-100.623C528.8,119.2,497.279,110.235,484.1,109.66Z" transform="translate(-386.142 -109.114)" fill="none"/>
    </clipPath>
    <clipPath id="clip-path-2">
      <path id="Path_104147" data-name="Path 104147" d="M330.093,122.767l-14.825-12.495s-13.46,6.329-27.052,11.76a115.138,115.138,0,0,1-18.5-4.26c-31.141-10.1-82.661-21.311-103.438,8.8-13.663,19.8,9.254,80.5-1.59,133.572-1.009,4.939,3.553,9.409,8.51,10.32,24.243,4.452,88.246,6.319,110.992,3.683,4.391-.51,6.678-4.825,6.452-9.242,0,0-14.838-41.514-14.548-92.832,0,0,23.134-4.635,45.12-10.64-5.047-6.668-9.717-13.513-13.957-20.453C319.67,131.836,329.809,123.513,330.093,122.767Z" transform="translate(-161.793 -107.082)" fill="none"/>
    </clipPath>
    <clipPath id="clip-Are_you_dissatisfied_with_your_relationship_">
      <rect width="800" height="800"/>
    </clipPath>
  </defs>
  <g id="Are_you_dissatisfied_with_your_relationship_" data-name="Are you dissatisfied with your relationship?" clip-path="url(#clip-Are_you_dissatisfied_with_your_relationship_)">
    <rect width="800" height="800" fill="#fff"/>
    <g id="Group_23190" data-name="Group 23190" transform="translate(-138.993 46.404)">
      <g id="Group_23189" data-name="Group 23189" transform="translate(182.966 24.329)">
        <path id="Path_104049" data-name="Path 104049" d="M410.768,97.2s-16.507-31.373,4.5-41c13.847-6.341,28.929,9.974,43.032,10.324s21.523,13.019,23.266,21.593c2.729,13.421.1,36.874-16.876,35.519C443.355,121.937,410.768,97.2,410.768,97.2Z" transform="translate(123.357 4.959)" fill="#00305d"/>
        <path id="Path_104050" data-name="Path 104050" d="M238.884,159.182c-2.842,14.947-8.26,29.7-17.909,41.467s-23.91,20.258-39.117,20.72a53.8,53.8,0,0,1-25.2-5.922c-7.937-3.912-15.355-9.719-18.975-17.793s-2.515-18.655,4.242-24.369c5.069-4.285,12.854-5.8,15.657-11.815,3.045-6.539-1.751-14.579.762-21.342,3.632-9.782,19.306-10.013,23.427-19.6,3.192-7.422.112-13.455.324-21.531.194-7.3,5.991-13.7,13.06-15.528,8.971-2.322,10.31-2.88,12.744-4.02,7.993-3.743,5.7-11.874,14.817-17.4,19.338-11.729,44.145-1.1,48.514,8.294a43.738,43.738,0,0,1,3.41,23.935Z" transform="translate(-135.652 7.02)" fill="#302749"/>
        <g id="Group_23136" data-name="Group 23136" transform="translate(429.383 89.457)">
          <g id="Group_23135" data-name="Group 23135">
            <g id="Group_23116" data-name="Group 23116" transform="translate(0 563.923)">
              <path id="Path_104051" data-name="Path 104051" d="M397.92,392.035l1.462-33.6,31.02-1.262-.883,32.168.695,22.5a8.148,8.148,0,0,1-8.145,8.4h-59.02c-9.962,0-12.037-14.067-2.5-16.943Z" transform="translate(-354.386 -357.172)" fill="#fbc0b1"/>
              <g id="Group_23115" data-name="Group 23115" transform="translate(0.001 32.168)">
                <path id="Path_104052" data-name="Path 104052" d="M429.518,373.559c-17.477,10.773-31.6,2.7-31.6,2.7l-37.368,11.268c-9.54,2.876-7.465,16.943,2.5,16.943h59.018a8.148,8.148,0,0,0,8.145-8.4l-.7-22.5Z" transform="translate(-354.387 -373.559)" fill="#0099da"/>
              </g>
            </g>
            <g id="Group_23134" data-name="Group 23134" transform="translate(6.224)">
              <g id="Group_23117" data-name="Group 23117" transform="translate(30.31 244.301)">
                <path id="Path_104053" data-name="Path 104053" d="M377.626,530.331c-5.675-4.986-5.106-144.624-3.636-186.739,2.782-79.646,28.122-149.241,28.122-149.241l31.473,6.362,35.869,4.576s12.6,60.944-6.038,99.339c-19.513,40.187-43.265,219.834-48.34,225.332C411.05,534.32,381.962,534.142,377.626,530.331Z" transform="translate(-372.997 -194.351)" fill="#302749"/>
              </g>
              <g id="Group_23119" data-name="Group 23119" transform="translate(118.503 563.923)">
                <path id="Path_104054" data-name="Path 104054" d="M461.458,392.035l-1.673-33.6,31.02-1.262,2.252,32.168.7,22.5a8.149,8.149,0,0,1-8.147,8.4H426.587c-9.962,0-12.037-14.067-2.5-16.943Z" transform="translate(-417.924 -357.172)" fill="#fbc0b1"/>
                <g id="Group_23118" data-name="Group 23118" transform="translate(0 32.168)">
                  <path id="Path_104055" data-name="Path 104055" d="M493.057,373.559c-17.477,10.773-31.6,2.7-31.6,2.7l-37.37,11.268c-9.538,2.876-7.464,16.943,2.5,16.943h59.019a8.149,8.149,0,0,0,8.147-8.4l-.7-22.5Z" transform="translate(-417.924 -373.559)" fill="#0099da"/>
                </g>
              </g>
              <g id="Group_23120" data-name="Group 23120" transform="translate(103.106 244.301)">
                <path id="Path_104056" data-name="Path 104056" d="M482.809,196.208,447,194.351l-36.921,7.424S413.09,331.7,423.251,377.71c6.863,31.077,35.894,149.22,40.968,154.716,4.026,4.362,34.43,4.262,39.086-3.318,3.345-5.445-8.457-155.075-5.646-256.224C499.026,223.73,482.809,196.208,482.809,196.208Z" transform="translate(-410.081 -194.351)" fill="#302749"/>
              </g>
              <g id="Group_23133" data-name="Group 23133">
                <path id="Path_104057" data-name="Path 104057" d="M360.125,129.707c12.359,0,64.994-11.764,81.419-15.355,29.463-6.443,53.076-5.434,70.082-4.692,13.182.575,44.7,9.542,37.364,65.245-5.092,38.672-7.933,87.049-7.681,100.623a7.375,7.375,0,0,1-5.569,7.277c-28.609,7.358-90.266,7.369-115,.968-3.433-.889-8.07-5.033-6.884-9.923,16.731-68.912,24.324-113.693,24.324-113.693s-30.666,4.843-80.626,5.736Z" transform="translate(-357.557 -32.136)" fill="#fbc0b1"/>
                <path id="Path_104058" data-name="Path 104058" d="M418.331,318.855c-.624-2.511-8.109-54.9-9.213-106.657" transform="translate(-307.902 67.137)" fill="none" stroke="#43386d" stroke-miterlimit="10" stroke-width="1.5"/>
                <g id="Group_23132" data-name="Group 23132" transform="translate(56.112)">
                  <path id="Path_104059" data-name="Path 104059" d="M484.1,109.66c-17.006-.742-40.619-1.751-70.082,4.692-4.758,1.038-12.56,2.766-21.533,4.694.139,21.411.063,35.68-.014,43.31,11.749-1.184,18.186-2.2,18.186-2.2s-7.593,44.781-24.324,113.693c-1.186,4.89,3.451,9.034,6.884,9.923,24.73,6.4,86.387,6.39,115-.968a7.375,7.375,0,0,0,5.569-7.277c-.251-13.574,2.589-61.951,7.681-100.623C528.8,119.2,497.279,110.235,484.1,109.66Z" transform="translate(-386.142 -32.136)" fill="#0099da"/>
                  <g id="Group_23129" data-name="Group 23129" transform="translate(0 76.977)">
                    <g id="Group_23128" data-name="Group 23128" clip-path="url(#clip-path)">
                      <g id="Group_23127" data-name="Group 23127" transform="translate(-14.391 8.365)">
                        <g id="Group_23121" data-name="Group 23121">
                          <path id="Path_104060" data-name="Path 104060" d="M383.548,123.186q80.474.23,160.921,2.4c6.315.171,6.311-9.64,0-9.811q-80.445-2.173-160.921-2.4c-6.313-.018-6.321,9.794,0,9.811Z" transform="translate(-378.811 -113.375)" fill="#0078c2"/>
                        </g>
                        <g id="Group_23122" data-name="Group 23122" transform="translate(0 152.849)">
                          <path id="Path_104061" data-name="Path 104061" d="M383.548,201.05q80.474.23,160.921,2.4c6.315.171,6.311-9.64,0-9.811q-80.445-2.176-160.921-2.4c-6.313-.018-6.321,9.794,0,9.811Z" transform="translate(-378.811 -191.239)" fill="#0078c2"/>
                        </g>
                        <g id="Group_23123" data-name="Group 23123" transform="translate(0 122.279)">
                          <path id="Path_104062" data-name="Path 104062" d="M383.548,185.477q80.474.23,160.921,2.4c6.315.171,6.311-9.64,0-9.811q-80.445-2.173-160.921-2.4c-6.313-.018-6.321,9.794,0,9.811Z" transform="translate(-378.811 -175.666)" fill="#0078c2"/>
                        </g>
                        <g id="Group_23124" data-name="Group 23124" transform="translate(0 91.709)">
                          <path id="Path_104063" data-name="Path 104063" d="M383.548,169.9q80.474.23,160.921,2.4c6.315.171,6.311-9.638,0-9.809q-80.445-2.176-160.921-2.407c-6.313-.018-6.321,9.794,0,9.811Z" transform="translate(-378.811 -160.093)" fill="#0078c2"/>
                        </g>
                        <g id="Group_23125" data-name="Group 23125" transform="translate(0 61.141)">
                          <path id="Path_104064" data-name="Path 104064" d="M383.548,154.332q80.474.23,160.921,2.4c6.315.171,6.311-9.64,0-9.811q-80.445-2.176-160.921-2.4c-6.313-.02-6.321,9.792,0,9.811Z" transform="translate(-378.811 -144.521)" fill="#0078c2"/>
                        </g>
                        <g id="Group_23126" data-name="Group 23126" transform="translate(0 30.57)">
                          <path id="Path_104065" data-name="Path 104065" d="M383.548,138.759q80.474.23,160.921,2.4c6.315.171,6.311-9.64,0-9.811q-80.445-2.176-160.921-2.4c-6.313-.018-6.321,9.794,0,9.811Z" transform="translate(-378.811 -128.948)" fill="#0078c2"/>
                        </g>
                      </g>
                    </g>
                  </g>
                  <path id="Path_104067" data-name="Path 104067" d="M415.353,129.386s-.059-5.424-.059-18.5L455.253,88.92s-.707,30.651-.51,40.132C454.743,129.052,426.189,167.851,415.353,129.386Z" transform="translate(-358.067 -51.583)" fill="#f6a092"/>
                  <path id="Path_104068" data-name="Path 104068" d="M408.384,78.239c-4.633,40.945,10.055,59.607,28.06,58.261,13.837-1.035,25.494-17.624,29.08-31.958,7.821-.448,10.2-12.112,7.532-14.664-2.721-2.6-7.187,1.388-7.187,1.388-4.517.781-11.146-1.119-15.29-9.9C446.061,71.784,420.465,62.786,408.384,78.239Z" transform="translate(-365.552 -69.9)" fill="#fbc0b1"/>
                  <g id="Group_23130" data-name="Group 23130" transform="translate(42.255 20.583)">
                    <path id="Path_104069" data-name="Path 104069" d="M413.815,86.366c-.135,2.022-1.376,3.584-2.774,3.49s-2.42-1.808-2.285-3.828,1.376-3.584,2.774-3.492S413.95,84.344,413.815,86.366Z" transform="translate(-406.63 -78.318)" fill="#2c444d"/>
                    <path id="Path_104070" data-name="Path 104070" d="M407.667,81.949s4.682-3.276,9.489-.344" transform="translate(-407.667 -80.386)" fill="none" stroke="#2c444d" stroke-linecap="round" stroke-miterlimit="10" stroke-width="0.75"/>
                  </g>
                  <g id="Group_23131" data-name="Group 23131" transform="translate(74.062 22.583)">
                    <path id="Path_104071" data-name="Path 104071" d="M424.576,87.086c-.135,2.02.887,3.736,2.285,3.828s2.64-1.468,2.776-3.49-.889-3.736-2.285-3.83S424.711,85.064,424.576,87.086Z" transform="translate(-423.202 -79.299)" fill="#2c444d"/>
                    <path id="Path_104072" data-name="Path 104072" d="M433.228,83.72s-4.2-3.871-9.358-1.6" transform="translate(-423.87 -81.404)" fill="none" stroke="#2c444d" stroke-linecap="round" stroke-miterlimit="10" stroke-width="0.75"/>
                  </g>
                  <path id="Path_104073" data-name="Path 104073" d="M418.638,81.824s.51,8.669-2.8,11.56" transform="translate(-357.538 -58.417)" fill="none" stroke="#f58f77" stroke-linecap="round" stroke-miterlimit="10" stroke-width="1.5"/>
                </g>
              </g>
            </g>
          </g>
        </g>
        <g id="Group_23141" data-name="Group 23141" transform="translate(10.713 318.598)">
          <g id="Group_23138" data-name="Group 23138" transform="translate(81.742 3.439)">
            <g id="Group_23137" data-name="Group 23137" transform="translate(64.071 330.258)">
              <path id="Path_104074" data-name="Path 104074" d="M248.429,392.083l-1.486-34.18-31.554-1.284.9,32.722-.707,22.891a8.289,8.289,0,0,0,8.286,8.547h67.469a3.1,3.1,0,0,0,1.421-5.858Z" transform="translate(-215.389 -356.619)" fill="#fbc0b1"/>
            </g>
            <path id="Path_104075" data-name="Path 104075" d="M251.542,541.307a13.059,13.059,0,0,1-13.056-12.552c-1.262-32.622-3.8-113.125-8.584-148.819-7.55-56.394-47.152-139.106-47.152-139.106l12.289-52.45,70.327,3.649s38.338,71.026,38.2,184.409c-.051,41.059-11.574,124.244-16.584,153.992A13.048,13.048,0,0,1,274.1,541.307Z" transform="translate(-182.75 -188.38)" fill="#f17a70"/>
          </g>
          <g id="Group_23140" data-name="Group 23140">
            <g id="Group_23139" data-name="Group 23139" transform="translate(1.077 335.509)">
              <path id="Path_104076" data-name="Path 104076" d="M174.511,391.194l4.605-32.368-31.554-1.284-5.194,30.91-.707,22.891a8.29,8.29,0,0,0,8.286,8.547h67.471a3.1,3.1,0,0,0,1.419-5.858Z" transform="translate(-141.658 -357.542)" fill="#fbc0b1"/>
            </g>
            <path id="Path_104077" data-name="Path 104077" d="M154.318,542.995h21.939c6.085,0,10.341-4.536,12.728-10.135C255.5,376.81,263.227,217.512,263.227,217.512l-16.974-27.445-54.131-3.439s-21.236,26.625-27.186,67.817c-7.577,52.448,10.088,83.709-23.666,274.761C139.964,536.591,146.819,542.995,154.318,542.995Z" transform="translate(-141.109 -186.628)" fill="#f17a70"/>
          </g>
        </g>
        <path id="Path_104078" data-name="Path 104078" d="M197.459,294.469a883.544,883.544,0,0,0,20.92-88.9" transform="translate(-76.129 150.214)" fill="none" stroke="#db9560" stroke-miterlimit="10" stroke-width="1.5"/>
        <path id="Path_104079" data-name="Path 104079" d="M349.663,152.085c-22.487,9.76-73.565,19.988-73.565,19.988-.291,51.318,14.548,92.832,14.548,92.832.226,4.417-2.061,8.732-6.452,9.242-22.746,2.636-86.748.77-110.992-3.683-4.957-.911-9.519-5.381-8.51-10.32,10.844-53.074-12.073-113.773,1.588-133.572,20.779-30.109,72.3-18.894,103.44-8.8,34.92,11.323,73.529,2.713,77.208,3.673Z" transform="translate(-110.477 55.364)" fill="#ffc839"/>
        <path id="Path_104080" data-name="Path 104080" d="M212.731,124.959V106.991L181.962,88.466v37.168s15.506,30.113,22.9,30.113C211.127,155.747,212.731,124.959,212.731,124.959Z" transform="translate(-91.053 37.437)" fill="#f6a092"/>
        <path id="Path_104081" data-name="Path 104081" d="M235.274,80.035c.171,36.65-9.46,49.052-20,50.35-13.231,1.631-25.217-7.832-31.923-28.05-6.93-.864-8.769-12.742-4.65-16.156,2.583-2.142,4.65,1.6,4.65,1.6s22.693,2.193,34.614-14.638C217.964,73.145,230.53,66.924,235.274,80.035Z" transform="translate(-96.287 21.262)" fill="#fbc0b1"/>
        <g id="Group_23142" data-name="Group 23142" transform="translate(103.313 111.896)">
          <path id="Path_104082" data-name="Path 104082" d="M193.951,86.529c0,1.806-1.011,3.27-2.259,3.27s-2.261-1.464-2.261-3.27,1.013-3.268,2.261-3.268S193.951,84.723,193.951,86.529Z" transform="translate(-187.174 -79.472)" fill="#2c444d"/>
          <path id="Path_104083" data-name="Path 104083" d="M188.281,83.049s3.969-3.194,8.421-.872" transform="translate(-188.281 -81.331)" fill="none" stroke="#2c444d" stroke-linecap="round" stroke-miterlimit="10" stroke-width="0.75"/>
        </g>
        <g id="Group_23143" data-name="Group 23143" transform="translate(130.26 111.192)">
          <path id="Path_104084" data-name="Path 104084" d="M202.845,86.171c0,1.806,1.013,3.27,2.261,3.27s2.261-1.464,2.261-3.27-1.013-3.27-2.261-3.27S202.845,84.365,202.845,86.171Z" transform="translate(-201.202 -79.114)" fill="#2c444d"/>
          <path id="Path_104085" data-name="Path 104085" d="M210.427,82.69s-3.967-3.194-8.419-.872" transform="translate(-202.008 -80.972)" fill="none" stroke="#2c444d" stroke-linecap="round" stroke-miterlimit="10" stroke-width="0.75"/>
        </g>
        <path id="Path_104086" data-name="Path 104086" d="M198.365,82.206s.224,6.205,1.951,9.982" transform="translate(-75.257 31.408)" fill="none" stroke="#f58f77" stroke-linecap="round" stroke-miterlimit="10" stroke-width="1.5"/>
        <path id="Path_104087" data-name="Path 104087" d="M204.186,90.127a10.047,10.047,0,0,0-6.878,0" transform="translate(-76.275 38.46)" fill="none" stroke="#ee836f" stroke-linecap="round" stroke-miterlimit="10" stroke-width="0.75"/>
        <path id="Path_104088" data-name="Path 104088" d="M420.848,91.223a9.876,9.876,0,0,0-6.733-.612" transform="translate(132.517 39.195)" fill="none" stroke="#ee836f" stroke-linecap="round" stroke-miterlimit="10" stroke-width="0.75"/>
        <path id="Path_104089" data-name="Path 104089" d="M149.948,404.726h67.471a3.1,3.1,0,0,0,1.419-5.858L174.511,376.03s-20.922,5.393-32.143-2.742l-.707,22.891A8.29,8.29,0,0,0,149.948,404.726Z" transform="translate(-129.867 311.729)" fill="#ffc839"/>
        <path id="Path_104090" data-name="Path 104090" d="M292.665,397.917l-44.327-22.838s-14.316,5.628-32.2-.8l-.648,20.951a8.289,8.289,0,0,0,8.286,8.547h67.469A3.1,3.1,0,0,0,292.665,397.917Z" transform="translate(-58.771 312.68)" fill="#ffc839"/>
        <g id="Group_23153" data-name="Group 23153" transform="translate(171.505)">
          <g id="Group_23145" data-name="Group 23145" transform="translate(0 62.493)">
            <path id="Path_104091" data-name="Path 104091" d="M352.812,87.025s-68.2-67.053-116.076-3.484c-46.861,62.222,35.45,171.838,109.72,209.453l7.149-50.672L336.119,206.85l19.95-37.176L339.611,126.6Z" transform="translate(-223.019 -56.164)" fill="#e44491"/>
            <g id="Group_23144" data-name="Group 23144" transform="translate(13.813 13.979)">
              <path id="Path_104092" data-name="Path 104092" d="M269.7,64.671c.3.85-.226,2-1.3,3.3-1.109,1.219-2.64,2.907-4.539,4.7a138.293,138.293,0,0,0-13.241,15.479c-2.373,3.241-4.493,6.458-6.462,9.4l-5.055,7.993c-.783,1.146-1.353,2.189-2.032,3.105A23.536,23.536,0,0,1,235.36,111c-.991,1.266-1.965,2.045-2.866,1.969s-1.637-1.058-2.112-2.962a17.779,17.779,0,0,1-.326-3.331,27.82,27.82,0,0,1,.373-4.256,46.334,46.334,0,0,1,3.084-10.441A61.015,61.015,0,0,1,240.1,80.44c5.612-7.67,12.813-13.205,18.812-15.549a19.558,19.558,0,0,1,7.491-1.588C268.294,63.356,269.407,63.823,269.7,64.671Z" transform="translate(-230.056 -63.285)" fill="#ed8dba"/>
            </g>
          </g>
          <g id="Group_23148" data-name="Group 23148" transform="translate(186.234 55)">
            <path id="Path_104093" data-name="Path 104093" d="M347.473,73.854S420.651,16.73,454.656,88.679c31.609,66.878-57.523,163.937-133.724,189.527l12.842-48.428L317.89,189.056l22.159-36.436-8.816-44.592Z" transform="translate(-317.89 -52.347)" fill="#e44491"/>
            <g id="Group_23146" data-name="Group 23146" transform="translate(102.302 64.693)">
              <path id="Path_104094" data-name="Path 104094" d="M397.414,85.315c.891.13,1.568,1.256,2.024,3.229a29.712,29.712,0,0,1,.524,8.223,80.6,80.6,0,0,1-6.036,25.947,82.823,82.823,0,0,1-13.476,22.952c-4.49,5.224-8.392,7.613-9.807,6.509-2.8-2.185,4.13-16.4,11.175-34.316,3.616-8.93,6.649-17.1,9.136-23.081a56.134,56.134,0,0,1,3.473-7.063C395.5,86.063,396.522,85.187,397.414,85.315Z" transform="translate(-370.004 -85.303)" fill="#ed8dba"/>
            </g>
            <g id="Group_23147" data-name="Group 23147" transform="translate(114.13 30.426)">
              <path id="Path_104095" data-name="Path 104095" d="M376.584,68.892c.828-1.133,2.742-1.425,5.131-.475a14.825,14.825,0,0,1,7.079,6.505,15.081,15.081,0,0,1,2.12,9.364c-.349,2.552-1.6,4.166-3.029,4.221-2.872.073-5.477-3.93-8.131-8.37a44.529,44.529,0,0,1-3.106-6.354C375.973,71.84,375.712,70.077,376.584,68.892Z" transform="translate(-376.03 -67.847)" fill="#ed8dba"/>
            </g>
          </g>
          <path id="Path_104096" data-name="Path 104096" d="M288.093,90.554l9.212-.6,6.569,4.819-7.072,10.3Z" transform="translate(-160.351 38.873)" fill="#e44491"/>
          <path id="Path_104097" data-name="Path 104097" d="M295.274,89.766l2.848-17.347,17.942-6.43-7.974,15.233Z" transform="translate(-153.436 15.791)" fill="#e44491"/>
          <path id="Path_104098" data-name="Path 104098" d="M301.915,99.339l9.113,15.754,1.994-13.182Z" transform="translate(-147.04 47.908)" fill="#e44491"/>
          <path id="Path_104099" data-name="Path 104099" d="M296.5,119.224l-5.4,13.274,8.586,10.945,15.173-23.851-10.423,2.063Z" transform="translate(-157.462 67.058)" fill="#e44491"/>
          <path id="Path_104100" data-name="Path 104100" d="M315.519,57.945l9.628,21.383,10.976-23.195-10.986-2.519Z" transform="translate(-133.94 3.873)" fill="#e44491"/>
          <path id="Path_104101" data-name="Path 104101" d="M305.771,162.035l-12.415,29,15.393-9.16Z" transform="translate(-155.283 108.286)" fill="#e44491"/>
          <path id="Path_104102" data-name="Path 104102" d="M316.944,105.916l3.675-11.885,11.332,7.35-7.5,13.629Z" transform="translate(-132.566 42.796)" fill="#e44491"/>
          <path id="Path_104103" data-name="Path 104103" d="M311.346,80.106,300.857,95.048l14.86,14.86,11.507-20-10.232-2.869Z" transform="translate(-148.059 29.386)" fill="#e44491"/>
          <path id="Path_104104" data-name="Path 104104" d="M319.642,130.242l13.117,24.926L317.71,173.492l-9.734-21.98Z" transform="translate(-141.203 77.669)" fill="#e44491"/>
          <path id="Path_104105" data-name="Path 104105" d="M293.023,139.307l5.532,7.837,6.676-2.459v-7.271l-8.116,2.354Z" transform="translate(-155.604 84.576)" fill="#e44491"/>
          <path id="Path_104106" data-name="Path 104106" d="M314.231,194.5l6.653-5.487-6.1-6.234-8.135,3.651v16.663Z" transform="translate(-142.484 128.265)" fill="#e44491"/>
          <path id="Path_104107" data-name="Path 104107" d="M312.466,106.093l-2.194,6.581,3.45.844,2.625-3.712Z" transform="translate(-138.992 54.413)" fill="#e44491"/>
          <path id="Path_104108" data-name="Path 104108" d="M300.225,56.164l-2.194,6.581,3.449.844,2.625-3.712Z" transform="translate(-150.78 6.329)" fill="#e44491"/>
          <path id="Path_104109" data-name="Path 104109" d="M319.179,163.141l-7.9,4.184,2.466,3.858,5.753-1.125Z" transform="translate(-138.028 109.351)" fill="#e44491"/>
          <path id="Path_104110" data-name="Path 104110" d="M295.7,113.952l-.721,6.951,9.038.435-1.766-8.01Z" transform="translate(-153.724 61.381)" fill="#e44491"/>
          <g id="Group_23152" data-name="Group 23152" transform="translate(107.94)">
            <g id="Group_23149" data-name="Group 23149" transform="translate(0 20.748)">
              <path id="Path_104111" data-name="Path 104111" d="M289.843,48.3a1.858,1.858,0,0,1-1.3-.528l-9.972-9.67a1.866,1.866,0,0,1,2.6-2.68l9.972,9.672a1.866,1.866,0,0,1-1.3,3.206Z" transform="translate(-278.006 -34.898)" fill="#7f67aa"/>
            </g>
            <g id="Group_23150" data-name="Group 23150" transform="translate(95.891 20.748)">
              <path id="Path_104112" data-name="Path 104112" d="M328.721,48.3a1.867,1.867,0,0,1-1.3-3.206l9.97-9.672a1.866,1.866,0,1,1,2.6,2.68l-9.97,9.67A1.854,1.854,0,0,1,328.721,48.3Z" transform="translate(-326.854 -34.898)" fill="#7f67aa"/>
            </g>
            <g id="Group_23151" data-name="Group 23151" transform="translate(50.499)">
              <path id="Path_104113" data-name="Path 104113" d="M305.6,41.949h-.033a1.866,1.866,0,0,1-1.834-1.9l.243-13.888a1.891,1.891,0,0,1,1.9-1.833,1.867,1.867,0,0,1,1.833,1.9l-.245,13.888A1.865,1.865,0,0,1,305.6,41.949Z" transform="translate(-303.731 -24.329)" fill="#7f67aa"/>
            </g>
          </g>
        </g>
        <g id="Group_23155" data-name="Group 23155" transform="translate(65.06 144.31)">
          <g id="Group_23154" data-name="Group 23154" transform="translate(0 21.326)">
            <path id="Path_104114" data-name="Path 104114" d="M179.53,117.352c15.952-11.187,64.419,10.212,76.336,10.771,10.326.485,52.66-19.416,52.66-19.416L323.351,121.2c-.607,1.592-46.2,37.778-62.8,42.645-10.759,3.153-70.616-4.694-78.384-8.8C167.341,147.206,162.632,129.2,179.53,117.352Z" transform="translate(-168.794 -108.707)" fill="#ffc839"/>
          </g>
          <path id="Path_104115" data-name="Path 104115" d="M239.976,119.169s18.633-32.013,32.421-17.595c11.6,12.128-17.6,30.089-17.6,30.089Z" transform="translate(-100.244 -97.843)" fill="#fbc0b1"/>
        </g>
        <g id="Group_23157" data-name="Group 23157" transform="translate(433.491 191.37)">
          <g id="Group_23156" data-name="Group 23156">
            <path id="Path_104116" data-name="Path 104116" d="M393.983,137.371s-25.836-27.141-36.026-9.721C349.385,142.3,380.9,154.868,380.9,154.868Z" transform="translate(-356.479 -121.816)" fill="#fbc0b1"/>
            <path id="Path_104117" data-name="Path 104117" d="M469.729,124.571c-13.488,7.3-25.883,15.345-31.353,16.921-10.049,2.9-56.374-6.774-56.374-6.774l-13.08,17.5c.97,1.425,55.73,24.63,73.213,25.531,6.027.31,25-5.7,42.441-12.273A124.952,124.952,0,0,1,469.729,124.571Z" transform="translate(-344.497 -119.163)" fill="#fbc0b1"/>
          </g>
        </g>
        <path id="Path_104118" data-name="Path 104118" d="M421.137,131.005s18.947-14.487,40.058-14.352" transform="translate(139.279 64.581)" fill="none" stroke="#0066b2" stroke-miterlimit="10" stroke-width="1"/>
        <path id="Path_104119" data-name="Path 104119" d="M428.389,157.158c1.121-.134,28.3-8.757,38.9-24.381" transform="translate(146.263 80.11)" fill="none" stroke="#0066b2" stroke-miterlimit="10" stroke-width="1"/>
        <g id="Group_23188" data-name="Group 23188" transform="translate(51.316 162.446)">
          <g id="Group_23187" data-name="Group 23187">
            <g id="Group_23186" data-name="Group 23186" clip-path="url(#clip-path-2)">
              <g id="Group_23185" data-name="Group 23185" transform="translate(-1.793 2.853)">
                <g id="Group_23158" data-name="Group 23158" transform="translate(26.157 119.95)">
                  <path id="Path_104120" data-name="Path 104120" d="M175.631,178.135l.461.461a4.99,4.99,0,1,0,7.057-7.057l-.461-.461a4.99,4.99,0,1,0-7.057,7.057Z" transform="translate(-174.204 -169.639)" fill="#e9a42c"/>
                </g>
                <g id="Group_23159" data-name="Group 23159" transform="translate(43.645 95.113)">
                  <path id="Path_104121" data-name="Path 104121" d="M188.568,156.987h-.461a4.99,4.99,0,0,0,0,9.98h.461a4.99,4.99,0,1,0,0-9.98Z" transform="translate(-183.113 -156.987)" fill="#e9a42c"/>
                </g>
                <g id="Group_23160" data-name="Group 23160" transform="translate(24.222 71.417)">
                  <path id="Path_104122" data-name="Path 104122" d="M178.213,154.9h.461a4.99,4.99,0,1,0,0-9.98h-.461a4.99,4.99,0,1,0,0,9.98Z" transform="translate(-173.219 -144.916)" fill="#e9a42c"/>
                </g>
                <g id="Group_23161" data-name="Group 23161" transform="translate(0 63.192)">
                  <path id="Path_104123" data-name="Path 104123" d="M165.7,150.706c6.421,0,6.431-9.98,0-9.98s-6.433,9.98,0,9.98Z" transform="translate(-160.88 -140.726)" fill="#e9a42c"/>
                </g>
                <g id="Group_23162" data-name="Group 23162" transform="translate(0 11.992)">
                  <path id="Path_104124" data-name="Path 104124" d="M165.7,124.624c6.421,0,6.431-9.98,0-9.98s-6.433,9.98,0,9.98Z" transform="translate(-160.88 -114.644)" fill="#e9a42c"/>
                </g>
                <g id="Group_23163" data-name="Group 23163" transform="translate(48.8 46.098)">
                  <path id="Path_104125" data-name="Path 104125" d="M195.719,137.473v-.461a4.99,4.99,0,0,0-9.98,0v.461a4.99,4.99,0,0,0,9.98,0Z" transform="translate(-185.739 -132.018)" fill="#e9a42c"/>
                </g>
                <g id="Group_23164" data-name="Group 23164" transform="translate(51.055 18.953)">
                  <path id="Path_104126" data-name="Path 104126" d="M186.888,123.184v.461a4.99,4.99,0,0,0,9.98,0v-.461a4.99,4.99,0,0,0-9.98,0Z" transform="translate(-186.888 -118.19)" fill="#e9a42c"/>
                </g>
                <g id="Group_23165" data-name="Group 23165" transform="translate(89.022 0.923)">
                  <path id="Path_104127" data-name="Path 104127" d="M211.048,118.985c6.423,0,6.433-9.98,0-9.98s-6.431,9.98,0,9.98Z" transform="translate(-206.229 -109.005)" fill="#e9a42c"/>
                </g>
                <g id="Group_23166" data-name="Group 23166" transform="translate(117.158 44.741)">
                  <path id="Path_104128" data-name="Path 104128" d="M225.381,141.307c6.423,0,6.433-9.98,0-9.98s-6.431,9.98,0,9.98Z" transform="translate(-220.562 -131.327)" fill="#e9a42c"/>
                </g>
                <g id="Group_23167" data-name="Group 23167" transform="translate(145.587 49.35)">
                  <path id="Path_104129" data-name="Path 104129" d="M245.024,139.13v-.461a4.99,4.99,0,0,0-9.98,0v.461a4.99,4.99,0,1,0,9.98,0Z" transform="translate(-235.044 -133.675)" fill="#e9a42c"/>
                </g>
                <g id="Group_23168" data-name="Group 23168" transform="translate(84.894 86.256)">
                  <path id="Path_104130" data-name="Path 104130" d="M209.118,162.455h.461a4.99,4.99,0,0,0,0-9.98h-.461a4.99,4.99,0,0,0,0,9.98Z" transform="translate(-204.126 -152.475)" fill="#e9a42c"/>
                </g>
                <g id="Group_23169" data-name="Group 23169" transform="translate(15.026 37.778)">
                  <path id="Path_104131" data-name="Path 104131" d="M177.764,136.149c.157-.306.312-.612.469-.919,1.184-2.324.685-5.52-1.79-6.827-2.277-1.2-5.563-.693-6.827,1.79-.157.306-.312.612-.469.919-1.184,2.324-.685,5.518,1.79,6.827,2.277,1.2,5.563.693,6.827-1.79Z" transform="translate(-168.534 -127.78)" fill="#e9a42c"/>
                </g>
                <g id="Group_23170" data-name="Group 23170" transform="translate(30.269)">
                  <path id="Path_104132" data-name="Path 104132" d="M181.293,118.515h.461a4.99,4.99,0,1,0,0-9.98h-.461a4.99,4.99,0,1,0,0,9.98Z" transform="translate(-176.299 -108.535)" fill="#e9a42c"/>
                </g>
                <g id="Group_23171" data-name="Group 23171" transform="translate(84.41 35.517)">
                  <path id="Path_104133" data-name="Path 104133" d="M208.7,136.608c6.421,0,6.431-9.98,0-9.98s-6.433,9.98,0,9.98Z" transform="translate(-203.879 -126.628)" fill="#e9a42c"/>
                </g>
                <g id="Group_23172" data-name="Group 23172" transform="translate(91.158 117.155)">
                  <path id="Path_104134" data-name="Path 104134" d="M207.317,173.21v.461a4.99,4.99,0,1,0,9.98,0v-.461a4.99,4.99,0,0,0-9.98,0Z" transform="translate(-207.317 -168.216)" fill="#e9a42c"/>
                </g>
                <g id="Group_23173" data-name="Group 23173" transform="translate(57.657 136.994)">
                  <path id="Path_104135" data-name="Path 104135" d="M195.07,188.3c6.421,0,6.433-9.978,0-9.978s-6.431,9.978,0,9.978Z" transform="translate(-190.251 -178.322)" fill="#e9a42c"/>
                </g>
                <g id="Group_23174" data-name="Group 23174" transform="translate(2.608 106.117)">
                  <path id="Path_104136" data-name="Path 104136" d="M171.913,165.981l-.463-.923a5.023,5.023,0,0,0-6.827-1.79,5.112,5.112,0,0,0-1.788,6.827l.461.921a5.021,5.021,0,0,0,6.827,1.79,5.11,5.11,0,0,0,1.79-6.825Z" transform="translate(-162.208 -162.593)" fill="#e9a42c"/>
                </g>
                <g id="Group_23175" data-name="Group 23175" transform="translate(112.4 103.357)">
                  <path id="Path_104137" data-name="Path 104137" d="M226.632,170.131l.461-.461a4.99,4.99,0,0,0-7.057-7.057l-.461.461a4.99,4.99,0,0,0,7.057,7.057Z" transform="translate(-218.138 -161.187)" fill="#e9a42c"/>
                </g>
                <g id="Group_23176" data-name="Group 23176" transform="translate(59.963 71.878)">
                  <path id="Path_104138" data-name="Path 104138" d="M196.246,155.131c6.421,0,6.433-9.98,0-9.98s-6.433,9.98,0,9.98Z" transform="translate(-191.426 -145.151)" fill="#e9a42c"/>
                </g>
                <g id="Group_23177" data-name="Group 23177" transform="translate(105.918 65.494)">
                  <path id="Path_104139" data-name="Path 104139" d="M224.816,147.354v-.461a4.99,4.99,0,1,0-9.98,0v.461a4.99,4.99,0,1,0,9.98,0Z" transform="translate(-214.836 -141.899)" fill="#e9a42c"/>
                </g>
                <g id="Group_23178" data-name="Group 23178" transform="translate(123.616 18.451)">
                  <path id="Path_104140" data-name="Path 104140" d="M228.672,127.914c6.421,0,6.433-9.98,0-9.98s-6.433,9.98,0,9.98Z" transform="translate(-223.852 -117.934)" fill="#e9a42c"/>
                </g>
                <g id="Group_23179" data-name="Group 23179" transform="translate(151.291 17.067)">
                  <path id="Path_104141" data-name="Path 104141" d="M242.769,127.209c6.423,0,6.433-9.98,0-9.98s-6.431,9.98,0,9.98Z" transform="translate(-237.95 -117.229)" fill="#e9a42c"/>
                </g>
                <g id="Group_23180" data-name="Group 23180" transform="translate(136.993 0.461)">
                  <path id="Path_104142" data-name="Path 104142" d="M235.485,118.75c6.421,0,6.433-9.98,0-9.98s-6.431,9.98,0,9.98Z" transform="translate(-230.666 -108.77)" fill="#e9a42c"/>
                </g>
                <g id="Group_23181" data-name="Group 23181" transform="translate(118.433 139.372)">
                  <path id="Path_104143" data-name="Path 104143" d="M223.621,188.759l.923.461c2.332,1.166,5.514.7,6.827-1.79,1.2-2.261.7-5.581-1.79-6.827l-.923-.461c-2.332-1.166-5.512-.7-6.825,1.79-1.2,2.261-.7,5.581,1.788,6.827Z" transform="translate(-221.211 -179.534)" fill="#e9a42c"/>
                </g>
                <g id="Group_23182" data-name="Group 23182" transform="translate(90.693 161.44)">
                  <path id="Path_104144" data-name="Path 104144" d="M212.074,200.755h.461a4.99,4.99,0,0,0,0-9.98h-.461a4.99,4.99,0,0,0,0,9.98Z" transform="translate(-207.08 -190.775)" fill="#e9a42c"/>
                </g>
                <g id="Group_23183" data-name="Group 23183" transform="translate(29.52 151.754)">
                  <path id="Path_104145" data-name="Path 104145" d="M180.738,195.819c6.421,0,6.433-9.978,0-9.978s-6.433,9.978,0,9.978Z" transform="translate(-175.918 -185.841)" fill="#e9a42c"/>
                </g>
                <g id="Group_23184" data-name="Group 23184" transform="translate(0 144.373)">
                  <path id="Path_104146" data-name="Path 104146" d="M165.7,192.061c6.421,0,6.431-9.98,0-9.98s-6.433,9.98,0,9.98Z" transform="translate(-160.88 -182.081)" fill="#e9a42c"/>
                </g>
              </g>
            </g>
          </g>
          <path id="Path_104148" data-name="Path 104148" d="M274.634,117.923s-20.792,9.23-33.432,7.7c-15.944-1.938-39.965-19.9-65.322-12.473" transform="translate(-148.227 -102.966)" fill="none" stroke="#cf8b1f" stroke-miterlimit="10" stroke-width="1"/>
          <path id="Path_104149" data-name="Path 104149" d="M297.614,124.357s-32.557,25.146-54.429,27.021c-22.223,1.9-52.959-7.7-71.393-17.1" transform="translate(-152.164 -90.445)" fill="none" stroke="#cf8b1f" stroke-miterlimit="10" stroke-width="1"/>
        </g>
      </g>
    </g>
  </g>
</svg>
